<svg xmlns="http://www.w3.org/2000/svg" xmlns:xlink="http://www.w3.org/1999/xlink" version="1.1" x="0px" y="0px" viewBox="0 0 100 125" style="enable-background:new 0 0 100 100;" xml:space="preserve"><g><path d="M60.9,84.5l27.6-27.6c1.9-1.5,3.1-3.8,3.1-6.4s-1.2-4.9-3.1-6.4L60.9,16.5c-2.9-2.9-7.6-3.5-10.9-1   c-4.1,3-4.4,8.9-0.9,12.4l14.2,14.2c0,0,0,0.1,0,0.1l-46.2,0c-4.1,0-7.8,2.9-8.4,7c-0.8,5.1,3.2,9.5,8.1,9.5h46.5   c0.1,0,0.1,0.1,0,0.1L49,73.1c-3.5,3.5-3.2,9.4,0.9,12.4C53.3,87.9,57.9,87.4,60.9,84.5z"/></g></svg>