<?xml version="1.0" encoding="iso-8859-1"?>
<!-- Generator: Adobe Illustrator 19.0.0, SVG Export Plug-In . SVG Version: 6.00 Build 0)  -->
<svg version="1.1" id="Layer_1" xmlns="http://www.w3.org/2000/svg" xmlns:xlink="http://www.w3.org/1999/xlink" x="0px" y="0px"
	 viewBox="0 0 512 512" style="enable-background:new 0 0 512 512;" xml:space="preserve">
<g>
	<path style="fill:#FFFFF;" d="M280.362,58.88c17.067,17.067-21.333,81.92-84.48,145.067s-128,101.547-145.067,84.48
		c-17.067-17.067,21.333-81.92,84.48-145.067S263.296,42.667,280.362,58.88"/>
</g>
<path style="fill:#FFFFF;" d="M195.882,203.947c-63.147,63.147-128,101.547-145.067,84.48L261.589,499.2
	c17.067,17.067,81.92-21.333,145.067-84.48s101.547-128,84.48-145.067L280.362,58.88C296.576,75.947,259.029,140.8,195.882,203.947"
	/>
<g>

</g>
<path style="fill:#FFFFF;" d="M183.936,0c-34.987,0-64,29.013-64,64v95.573c5.12-5.12,10.24-11.093,15.36-16.213
	c0.853-0.853,0.853-0.853,1.707-1.707V64c0-25.6,21.333-46.933,46.933-46.933S230.869,38.4,230.869,64v192h17.067V64
	C247.936,29.013,218.922,0,183.936,0"/>
<path d="M61.909,300.373c-6.827,0-12.8-1.707-17.067-5.973c-23.893-23.893,24.747-97.28,84.48-157.013s133.12-108.373,157.013-84.48
	l0,0c23.893,23.893-24.747,97.28-84.48,157.013C152.362,259.413,94.336,300.373,61.909,300.373z M268.416,63.147
	c-17.067,0-66.56,24.747-127.147,86.187c-69.973,70.827-92.16,124.587-84.48,133.12c8.533,8.533,62.293-14.507,133.12-84.48
	c69.973-70.827,92.16-124.587,84.48-133.12C273.536,64,270.976,63.147,268.416,63.147z"/>
<path d="M273.536,512c-7.68,0-12.8-2.56-17.067-6.827L44.842,294.4l11.947-11.947c8.533,8.533,62.293-14.507,133.12-84.48
	c69.973-70.827,92.16-124.587,84.48-133.12l11.947-11.947l210.773,211.627c11.093,11.093,7.68,33.28-11.093,64.853
	c-16.213,28.16-42.667,60.587-73.387,91.307c-30.72,30.72-64,57.173-91.307,73.387C301.696,506.027,285.482,512,273.536,512z
	 M73.856,299.52l194.56,194.56c3.413,3.413,17.92,2.56,44.373-13.653c26.453-15.36,58.027-40.96,87.893-70.827
	c69.973-69.973,93.013-124.587,84.48-133.12L290.602,81.92c-7.68,33.28-45.227,84.48-88.747,128l0,0
	c-30.72,30.72-64,57.173-91.307,73.387C96.042,291.84,84.096,296.96,73.856,299.52z"/>

<g>
</g>
<g>
</g>
<g>
</g>
<g>
</g>
<g>
</g>
<g>
</g>
<g>
</g>
<g>
</g>
<g>
</g>
<g>
</g>
<g>
</g>
<g>
</g>
<g>
</g>
<g>
</g>
<g>
</g>
</svg>
