<svg xmlns="http://www.w3.org/2000/svg" viewBox="0 0 32 32" id="color-picker">
  <path fill="#4880bd" d="M26.632-.132h0a2.5,2.5,0,0,1,2.5,2.5v8.5a0,0,0,0,1,0,0h-5a0,0,0,0,1,0,0v-8.5a2.5,2.5,0,0,1,2.5-2.5Z" transform="rotate(45 26.631 5.368)"></path>
  <rect width="9" height="4" x="16.828" y="8.672" fill="#4880bd" rx="1" ry="1" transform="rotate(45 21.329 10.672)"></rect>
  <path fill="#e0e0e2" d="M21.682,13.854l-3.536-3.536L8.46,20a1,1,0,0,0-.289.8l.033.363a1,1,0,0,1-.289.8l-.729.729a1.5,1.5,0,0,0,0,2.121h0a1.5,1.5,0,0,0,2.121,0l.729-.729a1,1,0,0,1,.8-.289l.363.033a1,1,0,0,0,.8-.289Z"></path>
  <path fill="#4880bd" d="M6.5,29.5a2,2,0,0,1-4,0c0-1.1,2-4,2-4S6.5,28.4,6.5,29.5Z"></path>
  <path d="M4.089,25.216C3.74,25.721,2,28.3,2,29.5a2.5,2.5,0,0,0,5,0c0-1.2-1.74-3.779-2.089-4.284A.518.518,0,0,0,4.089,25.216ZM4.5,31A1.5,1.5,0,0,1,3,29.5a9.731,9.731,0,0,1,1.5-3.1A9.717,9.717,0,0,1,6,29.5,1.5,1.5,0,0,1,4.5,31ZM31.753,3.247a2.983,2.983,0,0,0-.879-2.122,3.073,3.073,0,0,0-4.242,0L20.975,6.783l-.354-.354a1.5,1.5,0,0,0-2.121,0L17.086,7.843a1.5,1.5,0,0,0,0,2.121l.354.354L8.106,19.65a1.49,1.49,0,0,0-.433,1.2l.032.365a.5.5,0,0,1-.144.4l-.729.729a2,2,0,1,0,2.828,2.828l.729-.729a.506.506,0,0,1,.4-.145l.364.033a1.512,1.512,0,0,0,1.2-.434l9.332-9.333.354.354a1.5,1.5,0,0,0,2.122,0L25.571,13.5a1.5,1.5,0,0,0,0-2.121l-.354-.354,5.657-5.657A2.981,2.981,0,0,0,31.753,3.247ZM11.643,23.186a.48.48,0,0,1-.4.145L10.88,23.3a1.492,1.492,0,0,0-1.2.434l-.729.729A1,1,0,1,1,7.54,23.046l.729-.729a1.491,1.491,0,0,0,.433-1.2l-.032-.365a.5.5,0,0,1,.144-.4l9.333-9.333,1.414,1.414,1.414,1.414ZM24.864,12.793,23.45,14.207a.5.5,0,0,1-.708,0l-2.475-2.475L18.5,9.964h0l-.707-.707a.5.5,0,0,1,0-.707l1.414-1.414a.5.5,0,0,1,.707,0l4.95,4.95a.5.5,0,0,1,0,.707Zm5.3-8.132-5.656,5.657-2.4-2.4-.424-.424,5.657-5.657a2.049,2.049,0,0,1,2.828,0,2,2,0,0,1,0,2.829Z"></path>
</svg>
