<?xml version="1.0" encoding="iso-8859-1"?>
<!-- Generator: Adobe Illustrator 19.0.0, SVG Export Plug-In . SVG Version: 6.00 Build 0)  -->
<svg version="1.1" id="Layer_1" xmlns="http://www.w3.org/2000/svg" xmlns:xlink="http://www.w3.org/1999/xlink" x="0px" y="0px"
	 viewBox="0 0 512 512" style="enable-background:new 0 0 512 512;" xml:space="preserve">
<path style="fill:#fffff;" d="M256.809,447.368L64.642,255.201L300.932,18.91c11.615-11.615,30.447-11.615,42.063,0
	l150.104,150.105c11.615,11.615,11.615,30.447,0,42.063L256.809,447.368z"/>
<rect x="14.975" y="336.079" transform="matrix(-0.7071 -0.7071 0.7071 -0.7071 -62.6154 750.0294)" style="fill:#fffff;" width="218.108" height="103.806"/>
<rect x="218.826" y="40.667" transform="matrix(-0.7071 -0.7071 0.7071 -0.7071 336.6019 584.6636)" style="fill:#fffff;" width="141.125" height="363.904"/>
<g>
	<path style="fill:#fffff;" d="M350.207,11.698C342.664,4.154,332.634,0,321.964,0c-10.669,0-20.699,4.154-28.243,11.698
		L57.43,247.99c-3.983,3.983-3.983,10.441,0,14.424l11.758,11.758l-66.191,66.19c-3.983,3.983-3.983,10.441,0,14.424
		l154.228,154.228c1.992,1.992,4.602,2.987,7.212,2.987c2.61,0,5.22-0.995,7.212-2.987l66.19-66.191l11.758,11.758
		c1.992,1.992,4.602,2.987,7.212,2.987c2.61,0,5.22-0.995,7.212-2.987l236.292-236.291c15.572-15.574,15.572-40.913,0-56.485
		L350.207,11.698z M125.253,301.386L368.149,58.489l85.371,85.37L210.624,386.758L125.253,301.386z M79.065,255.201l229.08-229.079
		c3.691-3.691,8.599-5.724,13.819-5.724s10.128,2.033,13.819,5.724l17.943,17.943L110.828,286.963L79.065,255.201z M223.415,428.398
		l-58.978,58.979L24.633,347.573l58.978-58.979L223.415,428.398z M225.047,401.182l242.897-242.898l17.943,17.942
		c7.62,7.62,7.62,20.019,0,27.639L256.809,432.944L225.047,401.182z"/>
	<path style="fill:#fffff;" d="M63.318,340.089c-3.984-3.983-10.44-3.983-14.425,0c-3.983,3.983-3.983,10.441,0,14.425
		l51.959,51.959c1.992,1.992,4.602,2.987,7.212,2.987c2.61,0,5.22-0.995,7.212-2.987c3.983-3.983,3.983-10.441,0-14.425
		L63.318,340.089z"/>
	<path style="fill:#fffff;" d="M133.018,438.638c1.991,1.992,4.602,2.987,7.212,2.987s5.22-0.995,7.211-2.987
		c3.984-3.983,3.984-10.44,0.001-14.424l-4.949-4.949c-3.981-3.982-10.44-3.984-14.424,0c-3.984,3.983-3.984,10.44-0.001,14.424
		L133.018,438.638z"/>
</g>
<g>
</g>
<g>
</g>
<g>
</g>
<g>
</g>
<g>
</g>
<g>
</g>
<g>
</g>
<g>
</g>
<g>
</g>
<g>
</g>
<g>
</g>
<g>
</g>
<g>
</g>
<g>
</g>
<g>
</g>
</svg>
