<?xml version="1.0" encoding="iso-8859-1"?>
<!-- Uploaded to: SVG Repo, www.svgrepo.com, Generator: SVG Repo Mixer Tools -->
<svg version="1.1" id="Layer_1" xmlns="http://www.w3.org/2000/svg" xmlns:xlink="http://www.w3.org/1999/xlink" 
	 viewBox="0 0 512 512" xml:space="preserve">
<rect x="397.046" y="42.328" transform="matrix(-0.7071 -0.7071 0.7071 -0.7071 725.4609 422.1125)" style="fill:#fffff;" width="106.213" height="36.962"/>
<rect x="56.535" y="178.415" transform="matrix(-0.7071 0.7071 -0.7071 -0.7071 640.7646 197.6301)" style="fill:#fffff;" width="445.833" height="106.214"/>
<rect x="311.059" y="93.48" transform="matrix(-0.7071 -0.7071 0.7071 -0.7071 570.5686 455.4079)" style="fill:#fffff;" width="137.086" height="32.111"/>
<rect x="53.848" y="372.393" transform="matrix(-0.7071 -0.7071 0.7071 -0.7071 -164.819 790.8983)" style="fill:#fffff;" width="55.085" height="114.383"/>
<g>
	<path style="fill:#fffff;" d="M507.988,92.515c3.983-3.983,3.983-10.441,0-14.425L432.884,2.987
		C430.972,1.075,428.377,0,425.672,0c-2.705,0-5.3,1.075-7.212,2.987L364.318,57.13l-14.621-14.621
		c-1.912-1.912-4.507-2.987-7.212-2.987s-5.3,1.075-7.212,2.987L207.77,170.011c-3.983,3.983-3.983,10.441,0,14.425
		c1.992,1.991,4.602,2.987,7.212,2.987c2.61,0,5.221-0.996,7.212-2.987l97.584-97.584l7.727,7.727L77.076,344.372
		c-1.916,1.912-2.994,4.507-2.997,7.214c-0.002,2.708,1.073,5.305,2.987,7.219l10.866,10.866l-73.671,73.671
		c-1.912,1.913-2.987,4.507-2.987,7.212s1.075,5.298,2.987,7.212l13.287,13.286L4.013,494.589c-3.983,3.983-3.984,10.441,0,14.425
		c1.992,1.99,4.601,2.986,7.212,2.986c2.61,0,5.221-0.996,7.212-2.987l23.537-23.537l11.236,11.236
		c1.992,1.991,4.602,2.987,7.212,2.987c2.61,0,5.221-0.996,7.212-2.987l73.67-73.67l10.866,10.866
		c1.912,1.912,4.507,2.987,7.212,2.987s5.3-1.075,7.212-2.987L507.988,92.515z M399.536,50.759l60.68,60.68l-20.794,20.794
		l-60.68-60.68L399.536,50.759z M342.485,64.146l82.513,82.513l-8.282,8.282l-82.513-82.513L342.485,64.146z M126.88,408.619
		l-66.458,66.458l-24.524-24.523l66.459-66.458L126.88,408.619z M159.382,412.273l-60.671-60.671l243.219-242.599l60.362,60.362
		L159.382,412.273z M413.96,36.336l11.712-11.712l60.68,60.679l-11.712,11.712L413.96,36.336z"/>
	<path style="fill:#fffff;" d="M232.899,294.101l-80.264,80.264c-3.983,3.983-3.983,10.441,0,14.425
		c1.992,1.991,4.602,2.987,7.212,2.987s5.221-0.996,7.212-2.987l80.264-80.264c3.983-3.983,3.983-10.441,0-14.425
		C243.341,290.119,236.882,290.119,232.899,294.101z"/>
	<path style="fill:#fffff;" d="M272.438,268.987c-3.983-3.982-10.441-3.982-14.425,0l-2.686,2.686
		c-3.983,3.983-3.983,10.441,0,14.425c1.992,1.991,4.602,2.987,7.212,2.987c2.61,0,5.221-0.996,7.212-2.987l2.686-2.686
		C276.421,279.429,276.421,272.97,272.438,268.987z"/>
</g>
</svg>